<svg preserveAspectRatio="none" overflow="visible" style="display: block;" width="24" height="24" viewBox="0 0 24 24" fill="none" xmlns="http://www.w3.org/2000/svg">
<g id="direction/menu-fold">
<path id="Union" d="M17.333 15.667C17.7011 15.667 17.9998 15.965 18 16.333C18 16.7012 17.7012 17 17.333 17H6.66699C6.2988 17 6 16.7012 6 16.333C6.00018 15.965 6.29891 15.667 6.66699 15.667H17.333ZM6 10.417C6 10.1528 6.29286 9.99321 6.51465 10.1367L9.06738 11.7891C9.27033 11.9204 9.27036 12.2173 9.06738 12.3486L6.51465 14.001C6.29288 14.1444 6.00004 13.9848 6 13.7207V10.417ZM17.333 11.333C17.7012 11.333 18 11.6318 18 12C18 12.3682 17.7012 12.667 17.333 12.667H12C11.6318 12.667 11.333 12.3682 11.333 12C11.333 11.6318 11.6318 11.333 12 11.333H17.333ZM17.333 7C17.7012 7 18 7.2988 18 7.66699C17.9998 8.03503 17.7011 8.33301 17.333 8.33301H6.66699C6.29891 8.33301 6.00017 8.03503 6 7.66699C6 7.2988 6.2988 7 6.66699 7H17.333Z" fill="#86909C"/>
</g>
</svg>
