<svg width="20" height="20" viewBox="0 0 1024 1024" fill="none" xmlns="http://www.w3.org/2000/svg">
  <path d="M528.3328 54.784a81.1008 81.1008 0 0 0-32.6656 0c-12.4416 2.5088-23.552 8.704-32.9728 14.0288l-2.5088 1.3824-158.3104 87.9616a38.144 38.144 0 0 0-1.1264.6144L144.4864 245.6064l-2.6624 1.4336c-9.984 5.5296-21.76 11.9808-30.7712 21.8112a81.0496 81.0496 0 0 0-17.408 29.4912c-4.096 12.6464-4.096 26.112-4.096 37.4784l.0512 3.0208v349.3888c0 11.3664-.1024 24.7808 4.096 37.4272 3.584 10.9568 9.5232 20.992 17.3568 29.4912 9.0112 9.7792 20.7872 16.2816 30.72 21.8112l2.7136 1.4336 315.6992 175.4112 2.56 1.3824c9.3696 5.2736 20.48 11.52 32.9216 14.08 10.752 2.2016 21.9136 2.2016 32.6656 0 12.4416-2.56 23.552-8.8064 32.9728-14.0288l2.5088-1.4336 315.6992-175.4112 2.6624-1.4336c9.984-5.5296 21.76-12.032 30.7712-21.8112 7.8336-8.448 13.7216-18.5344 17.408-29.4912 4.096-12.6464 4.096-26.112 4.096-37.4784l-.0512-3.0208V335.7696c0-11.3664.1024-24.7808-4.096-37.4272a81.0496 81.0496 0 0 0-17.3568-29.4912c-9.0112-9.8304-20.7872-16.2816-30.72-21.8112l-2.7136-1.4336-315.6992-175.4112-2.56-1.3824c-9.3696-5.2736-20.48-11.52-32.9216-14.08ZM320 235.8784l304.9472 169.4208L512 468.0704 207.0528 298.6496 320 235.9296Zm402.0224 203.264a35.9424 35.9424 0 0 0 1.28-.6656l134.2976-74.5984v321.2288a285.0304 285.0304 0 0 1-.3584 16.7936 4.1472 4.1472 0 0 1-.512.8704 287.3344 287.3344 0 0 1-14.4896 8.448L550.4 873.3696V534.528l171.6224-95.3344Zm-18.0224-77.824L399.0528 192l98.4576-54.6816a280.8832 280.8832 0 0 1 13.9776-7.424h1.024a283.6992 283.6992 0 0 1 14.0288 7.424l290.4064 161.3312L704 361.472Zm-537.6 2.56 307.2 170.6496v338.8416l-291.84-162.1504a284.672 284.672 0 0 1-14.4896-8.448 4.1984 4.1984 0 0 1-.512-.8704 285.5936 285.5936 0 0 1-.3584-16.7936V363.9296Z" fill="#4E5969"/>
</svg>
